<svg width="100" height="108" viewBox="0 0 100 108" fill="none" xmlns="http://www.w3.org/2000/svg">
<circle cx="50" cy="56" r="50" fill="url(#paint0_linear_4559_1314)"/>
<path d="M34.7559 64.3896C34.7559 67.2314 35.1074 69.7217 35.8105 71.8604C36.543 73.9697 37.5098 75.6104 38.7109 76.7822C39.9414 77.9248 41.2598 78.7744 42.666 79.3311C44.1016 79.8584 45.625 80.1221 47.2363 80.1221C50.5176 80.1221 53.3447 78.9941 55.7178 76.7383C58.3252 74.248 59.6289 70.1318 59.6289 64.3896C59.6289 58.6768 58.3252 54.5459 55.7178 51.9971C53.3154 49.7705 50.4883 48.6572 47.2363 48.6572C43.9258 48.6572 41.0986 49.7705 38.7549 51.9971C36.0889 54.5459 34.7559 58.6768 34.7559 64.3896ZM27.6807 64.3896C27.6807 55.5127 30.5371 49.3311 36.25 45.8447C39.4141 43.9404 43.0762 42.9883 47.2363 42.9883C51.3672 42.9883 55.0439 43.9404 58.2666 45.8447C59.9658 46.8994 61.4453 48.2178 62.7051 49.7998C65.4297 53.374 66.792 58.2373 66.792 64.3896C66.792 73.2959 63.9502 79.4629 58.2666 82.8906C55.1025 84.8242 51.4258 85.791 47.2363 85.791C43.0176 85.791 39.3555 84.8242 36.25 82.8906C34.5215 81.8652 33.0273 80.5469 31.7676 78.9355C29.043 75.4492 27.6807 70.6006 27.6807 64.3896Z" fill="white"/>
<path d="M29.0259 43.6494V73.9351C29.0259 78.9644 28.5376 82.8096 27.561 85.4707C26.0474 89.5723 23.0811 93.0879 18.6621 96.0176L15.3662 93.3809C18.0273 90.793 19.8584 88.4736 20.8594 86.4229C22.373 83.3223 23.1299 79.1597 23.1299 73.9351V48.3369H17.0508V43.6494H29.0259ZM21.7383 30.063C21.7383 28.8423 22.1533 27.8047 22.9834 26.9502C23.8379 26.0713 24.8633 25.6318 26.0596 25.6318C27.2559 25.6318 28.269 26.0713 29.0991 26.9502C29.9536 27.8047 30.3809 28.8423 30.3809 30.063C30.3809 31.2837 29.9536 32.3335 29.0991 33.2124C28.269 34.0669 27.2559 34.4941 26.0596 34.4941C24.8633 34.4941 23.8379 34.0669 22.9834 33.2124C22.1533 32.3335 21.7383 31.2837 21.7383 30.063Z" fill="white"/>
<path d="M55.2266 26.6641H96.9844V32.0938H79.6406V81H72.5703V32.0938H55.2266V26.6641Z" fill="white"/>
<path d="M50.667 67.082H42.6396L40.4424 73H37.9814L45.6279 52.624H47.8252L55.4717 73H52.8643L50.667 67.082ZM49.9053 65.0312L46.6533 56.2422L43.3867 65.0312H49.9053Z" fill="white"/>
<defs>
<linearGradient id="paint0_linear_4559_1314" x1="90" y1="11.5" x2="14" y2="95.5" gradientUnits="userSpaceOnUse">
<stop stop-color="#35BCFF"/>
<stop offset="1" stop-color="#FF58F9"/>
</linearGradient>
</defs>
</svg>
