<svg width="400" height="400" viewBox="0 0 400 400" fill="none" xmlns="http://www.w3.org/2000/svg">
<rect width="400" height="400" rx="200" fill="black"/>
<g clip-path="url(#clip0_4557_1311)">
<path d="M163.136 294.267C151.023 283.2 147.487 259.946 152.533 243.099C161.284 253.72 173.409 257.085 185.967 258.985C205.355 261.915 224.396 260.819 242.407 251.962C244.467 250.948 246.371 249.6 248.622 248.234C250.312 253.134 250.752 258.082 250.162 263.117C248.726 275.38 242.621 284.853 232.909 292.034C229.026 294.906 224.917 297.474 220.906 300.182C208.585 308.506 205.251 318.266 209.881 332.462C209.991 332.811 210.089 333.156 210.338 334C204.047 331.185 199.452 327.087 195.951 321.7C192.253 316.015 190.493 309.725 190.4 302.919C190.354 299.608 190.354 296.266 189.909 293.001C188.82 285.041 185.082 281.476 178.038 281.271C170.81 281.06 165.092 285.527 163.576 292.561C163.46 293.101 163.292 293.634 163.124 294.261L163.136 294.267Z" fill="white"/>
<path d="M163.136 294.267C151.023 283.2 147.487 259.946 152.533 243.099C161.284 253.72 173.409 257.085 185.967 258.985C205.355 261.915 224.396 260.819 242.407 251.962C244.467 250.948 246.371 249.6 248.622 248.234C250.312 253.134 250.752 258.082 250.162 263.117C248.726 275.38 242.621 284.853 232.909 292.034C229.026 294.906 224.917 297.474 220.906 300.182C208.585 308.506 205.251 318.266 209.881 332.462C209.991 332.811 210.089 333.156 210.338 334C204.047 331.185 199.452 327.087 195.951 321.7C192.253 316.015 190.493 309.725 190.4 302.919C190.354 299.608 190.354 296.266 189.909 293.001C188.82 285.041 185.082 281.476 178.038 281.271C170.81 281.06 165.092 285.527 163.576 292.561C163.46 293.101 163.292 293.634 163.124 294.261L163.136 294.267Z" fill="url(#paint0_linear_4557_1311)"/>
<path d="M94 240.292C94 240.292 129.869 222.827 165.838 222.827L192.958 138.937C193.973 134.88 196.937 132.123 200.284 132.123C203.631 132.123 206.596 134.88 207.611 138.937L234.731 222.827C277.331 222.827 306.568 240.292 306.568 240.292C306.568 240.292 245.642 74.3965 245.523 74.0636C243.775 69.1589 240.822 66 236.843 66H163.732C159.752 66 156.919 69.1589 155.052 74.0636C154.92 74.3902 94 240.292 94 240.292Z" fill="white"/>
</g>
<defs>
<linearGradient id="paint0_linear_4557_1311" x1="150.308" y1="334" x2="267.249" y2="278.721" gradientUnits="userSpaceOnUse">
<stop stop-color="#D83333"/>
<stop offset="1" stop-color="#F041FF"/>
</linearGradient>
<clipPath id="clip0_4557_1311">
<rect width="213" height="268" fill="white" transform="translate(94 66)"/>
</clipPath>
</defs>
</svg>
