<svg width="400" height="400" viewBox="0 0 400 400" fill="none" xmlns="http://www.w3.org/2000/svg">
<rect width="400" height="400" rx="200" fill="black"/>
<g clip-path="url(#clip0_4557_1304)">
<path d="M254.374 166.027H311.854V176.636H289.052V232.446H277.651V176.636H254.374V166.027Z" fill="white"/>
<path d="M159.84 166.027V176.636H113.766V193.702H150.819V204.31H113.766V221.838H159.84V232.446H102.365V176.636H102.36V166.027H159.84Z" fill="white"/>
<path d="M188.542 166.056H173.622L227.063 232.474H242.027L215.303 199.288L241.984 166.106L227.063 166.129L207.833 190.011L188.542 166.056Z" fill="white"/>
<path d="M203.853 213.498L196.381 204.209L173.579 232.525H188.542L203.853 213.498Z" fill="white"/>
<path fill-rule="evenodd" clip-rule="evenodd" d="M102.765 232.446L49.2512 166H35V232.419H46.401V180.197L88.4422 232.446H102.765Z" fill="white"/>
<path d="M314.417 232.041C313.582 232.041 312.871 231.752 312.277 231.173C311.682 230.595 311.388 229.895 311.396 229.065C311.388 228.258 311.682 227.565 312.277 226.987C312.871 226.408 313.582 226.119 314.417 226.119C315.22 226.119 315.923 226.408 316.517 226.987C317.12 227.565 317.421 228.258 317.429 229.065C317.421 229.613 317.282 230.115 317.004 230.564C316.718 231.021 316.356 231.379 315.899 231.638C315.451 231.904 314.957 232.041 314.417 232.041Z" fill="white"/>
<path d="M333.876 204.061H338.928V223.523C338.921 225.312 338.534 226.842 337.778 228.129C337.013 229.415 335.954 230.397 334.595 231.089C333.243 231.774 331.659 232.125 329.859 232.125C328.214 232.125 326.739 231.828 325.425 231.249C324.112 230.671 323.069 229.803 322.304 228.661C321.531 227.52 321.153 226.096 321.153 224.391H326.213C326.221 225.137 326.391 225.784 326.715 226.324C327.039 226.865 327.487 227.276 328.059 227.565C328.638 227.854 329.303 227.999 330.052 227.999C330.864 227.999 331.559 227.832 332.122 227.489C332.686 227.154 333.119 226.652 333.421 225.982C333.714 225.32 333.869 224.498 333.876 223.523V204.061Z" fill="white"/>
<path d="M359.716 211.672C359.593 210.492 359.052 209.571 358.109 208.917C357.159 208.254 355.931 207.927 354.424 207.927C353.366 207.927 352.455 208.087 351.698 208.399C350.941 208.719 350.354 209.145 349.952 209.685C349.55 210.226 349.349 210.842 349.333 211.535C349.333 212.114 349.472 212.616 349.743 213.035C350.013 213.461 350.376 213.819 350.848 214.108C351.311 214.405 351.828 214.648 352.393 214.846C352.964 215.044 353.536 215.211 354.107 215.349L356.742 215.995C357.8 216.239 358.828 216.566 359.809 216.985C360.79 217.396 361.678 217.921 362.458 218.553C363.239 219.185 363.857 219.946 364.312 220.836C364.768 221.727 365 222.77 365 223.972C365 225.594 364.583 227.017 363.74 228.25C362.899 229.476 361.686 230.435 360.094 231.127C358.511 231.812 356.595 232.163 354.34 232.163C352.161 232.163 350.261 231.828 348.662 231.158C347.055 230.496 345.803 229.521 344.899 228.242C343.996 226.964 343.509 225.403 343.439 223.569H348.446C348.515 224.528 348.824 225.327 349.349 225.974C349.882 226.614 350.577 227.086 351.427 227.405C352.285 227.717 353.242 227.877 354.301 227.877C355.406 227.877 356.379 227.71 357.221 227.382C358.055 227.055 358.712 226.598 359.183 226.005C359.662 225.419 359.902 224.726 359.909 223.934C359.902 223.211 359.685 222.61 359.268 222.138C358.843 221.666 358.256 221.27 357.506 220.951C356.75 220.631 355.869 220.342 354.865 220.091L351.667 219.284C349.357 218.698 347.526 217.807 346.189 216.612C344.846 215.417 344.181 213.834 344.181 211.847C344.181 210.218 344.629 208.787 345.533 207.562C346.429 206.336 347.657 205.385 349.21 204.707C350.771 204.022 352.532 203.688 354.494 203.688C356.487 203.688 358.232 204.022 359.739 204.707C361.245 205.385 362.428 206.329 363.285 207.531C364.142 208.734 364.59 210.112 364.614 211.672H359.716Z" fill="white"/>
</g>
<defs>
<clipPath id="clip0_4557_1304">
<rect width="330" height="67" fill="white" transform="translate(35 166)"/>
</clipPath>
</defs>
</svg>
